<svg xmlns="http://www.w3.org/2000/svg" width="900" height="1200" viewBox="0 0 600 800"><defs><linearGradient id="g" x2="1" y2="1"><stop stop-color="#070b13"/><stop offset=".6" stop-color="#0b101b"/><stop offset="1" stop-color="#15151c"/></linearGradient><radialGradient id="b" cx="75%" cy="35%" r="55%"><stop stop-color="#12a8ff" stop-opacity=".27"/><stop offset="1" stop-color="#12a8ff" stop-opacity="0"/></radialGradient><linearGradient id="c"><stop stop-color="#12a8ff"/><stop offset="1" stop-color="#66ddff"/></linearGradient><linearGradient id="w"><stop stop-color="#ff7a18"/><stop offset="1" stop-color="#ffc067"/></linearGradient><filter id="s"><feGaussianBlur in="SourceAlpha" stdDeviation="7"/><feOffset dy="9"/><feComponentTransfer><feFuncA type="linear" slope=".45"/></feComponentTransfer><feMerge><feMergeNode/><feMergeNode in="SourceGraphic"/></feMerge></filter></defs><rect width="600" height="800" rx="18" fill="url(#g)"/><rect width="600" height="800" rx="18" fill="url(#b)"/><rect x="18" y="18" width="564" height="764" rx="16" fill="none" stroke="#1c2a3c"/><rect x="34" y="35" width="90" height="30" rx="15" fill="#071522" stroke="#ff7a18"/><text x="79" y="55" text-anchor="middle" fill="#ff9a43" font-size="12" font-weight="700" font-family="Arial">ЦЕНА</text><text x="36" y="105" fill="#f2f5f8" font-size="27" font-weight="700" font-family="Arial">Сколько стоит</text><text x="36" y="138" fill="#f2f5f8" font-size="27" font-weight="700" font-family="Arial">3D-печать?</text><text x="36" y="168" fill="#8a9bb0" font-size="15" font-family="Arial">PRINTLAB · 3D-ПЕЧАТЬ</text><g transform="translate(80 360)" filter="url(#s)"><rect x="30" y="25" width="460" height="300" rx="25" fill="#0d1725" stroke="#2a405b" stroke-width="3"/><rect x="70" y="65" width="380" height="70" rx="12" fill="#07101a" stroke="#1e354d"/><text x="260" y="110" text-anchor="middle" fill="#d7e3f0" font-family="Arial" font-size="25">МАТЕРИАЛ × ВРЕМЯ</text><g fill="#121f30" stroke="#2b405a" stroke-width="2"><rect x="70" y="165" width="85" height="55" rx="10"/><rect x="175" y="165" width="85" height="55" rx="10"/><rect x="280" y="165" width="85" height="55" rx="10"/><rect x="385" y="165" width="65" height="55" rx="10"/></g><circle cx="112" cy="192" r="9" fill="#12a8ff"/><circle cx="217" cy="192" r="9" fill="#7f6cff"/><circle cx="322" cy="192" r="9" fill="#ff7a18"/><circle cx="417" cy="192" r="9" fill="#66ddff"/><path d="M95 270H425" stroke="url(#c)" stroke-width="7"/><path d="M130 270Q195 230 255 270T385 270" fill="none" stroke="url(#w)" stroke-width="5"/></g><text x="218" y="748" fill="#687b91" font-size="12" font-family="Arial">3-d-shop.ru · Блог</text></svg>